# xmcd
#
# Track frame offsets:
#	150
#	23419
#	52944
#	77760
#	101161
#	122839
#	144305
#	164841
#	186635
#	210116
#	229136
#	256076
#	282541
#
# Disc length: 4149 seconds
#
# Revision: 1
# Processed by: cddbd v1.5.2PL0 Copyright (c) Steve Scherf et al.
# Submitted via: CDmax 1.9
#
DISCID=b310330d
DTITLE=Little Axe - Wanted
DYEAR=2012
DGENRE=Blues
TTITLE0=On The Beat Sound
TTITLE1=Hammer Head
TTITLE2=Black Diamond Train
TTITLE3=Stealing In The Name
TTITLE4=Rain And Cold
TTITLE5=Storm Is Rising
TTITLE6=Soul Of A Man
TTITLE7=Going Down Slow
TTITLE8=Return
TTITLE9=Chains
TTITLE10=Ride On
TTITLE11=Too Late
TTITLE12=Cosmic Slop
EXTD=
EXTT0=
EXTT1=
EXTT2=
EXTT3=
EXTT4=
EXTT5=
EXTT6=
EXTT7=
EXTT8=
EXTT9=
EXTT10=
EXTT11=
EXTT12=
PLAYORDER=
